<svg width="13" height="15" viewBox="0 0 13 15" fill="none" xmlns="http://www.w3.org/2000/svg">
<path d="M12.0454 7.14012C12.1453 7.24276 12.2006 7.38068 12.1993 7.52391C12.1981 7.66713 12.1403 7.80406 12.0387 7.90493L6.53734 13.3995C5.83273 14.1042 4.87707 14.5 3.8806 14.5C2.88413 14.5 1.92848 14.1042 1.22387 13.3995C0.519259 12.6949 0.123413 11.7393 0.123413 10.7428C0.123413 9.74634 0.519259 8.79068 1.22387 8.08607L7.88583 1.33689C8.13232 1.077 8.42834 0.86908 8.75645 0.725391C9.08455 0.581701 9.4381 0.505151 9.79626 0.500251C10.1544 0.495352 10.5099 0.562202 10.8418 0.696863C11.1738 0.831523 11.4754 1.03127 11.7289 1.28432C11.9824 1.53738 12.1826 1.83862 12.3179 2.1703C12.4531 2.50197 12.5206 2.85737 12.5163 3.21553C12.5121 3.5737 12.4362 3.92739 12.293 4.25575C12.1499 4.58411 11.9425 4.88049 11.6831 5.12744L5.02112 11.8766C4.87221 12.0278 4.69465 12.1478 4.49882 12.2296C4.30299 12.3114 4.09282 12.3533 3.8806 12.353C3.56157 12.3537 3.2495 12.2597 2.98398 12.0829C2.71847 11.906 2.51148 11.6542 2.38929 11.3595C2.2671 11.0648 2.2352 10.7405 2.29766 10.4276C2.36011 10.1147 2.5141 9.82749 2.74009 9.60229L8.32862 3.92654C8.37698 3.8723 8.43585 3.82844 8.50167 3.79763C8.56748 3.76681 8.63887 3.74969 8.7115 3.74728C8.78413 3.74488 8.85649 3.75725 8.92419 3.78365C8.9919 3.81005 9.05354 3.84992 9.10538 3.90085C9.15722 3.95178 9.19817 4.0127 9.22576 4.07993C9.25336 4.14716 9.26701 4.21929 9.26589 4.29195C9.26477 4.36461 9.24891 4.43629 9.21927 4.50264C9.18963 4.56899 9.14682 4.62863 9.09344 4.67794L3.5049 10.3604C3.45403 10.4103 3.41359 10.4698 3.38595 10.5354C3.3583 10.6011 3.34401 10.6716 3.34389 10.7428C3.34586 10.8484 3.37855 10.9511 3.43797 11.0384C3.49739 11.1257 3.58096 11.1938 3.67847 11.2344C3.77597 11.275 3.88319 11.2863 3.987 11.2669C4.09081 11.2475 4.18673 11.1983 4.26301 11.1252L10.9183 4.36933C11.0695 4.22042 11.1895 4.04286 11.2713 3.84703C11.3531 3.6512 11.395 3.44103 11.3946 3.22881C11.3954 2.90978 11.3014 2.59771 11.1245 2.33219C10.9476 2.06668 10.6959 1.85969 10.4012 1.7375C10.1065 1.6153 9.78211 1.58341 9.46925 1.64587C9.15639 1.70832 8.86914 1.86231 8.64394 2.08829L1.98869 8.84418C1.72879 9.09067 1.52087 9.38669 1.37718 9.7148C1.23349 10.0429 1.15694 10.3965 1.15204 10.7546C1.14714 11.1128 1.21399 11.4683 1.34865 11.8002C1.48331 12.1321 1.68306 12.4337 1.93611 12.6872C2.18917 12.9407 2.49041 13.141 2.82209 13.2762C3.15376 13.4115 3.50916 13.479 3.86732 13.4747C4.22549 13.4704 4.57918 13.3945 4.90754 13.2514C5.2359 13.1083 5.53228 12.9009 5.77923 12.6414L11.2805 7.14012C11.3823 7.03933 11.5197 6.98279 11.663 6.98279C11.8062 6.98279 11.9436 7.03933 12.0454 7.14012V7.14012Z" fill="white"/>
</svg>
