<svg width="84" height="52" viewBox="0 0 84 52" fill="none" xmlns="http://www.w3.org/2000/svg">
<path d="M14.4287 1.58691C20.829 0.141021 27.5288 0.635525 33.751 2.7168C46.3688 6.86839 55.9284 16.6337 63.6699 26.9756C67.8493 32.5536 71.5267 38.4672 74.7744 44.6357C75.6027 42.1651 76.4491 39.6857 77.2588 37.1748C78.4688 33.4664 79.7363 29.7543 80.9463 26.0459C81.1868 25.2813 81.8498 24.7773 82.6729 24.9551C83.5035 25.2479 84.1944 26.0691 83.9502 26.7764C81.5695 33.9024 79.1883 41.0283 76.8076 48.1543C76.3229 49.6262 75.9333 51.6688 74.0967 51.959C73.1803 52.1327 72.3423 51.7252 71.5547 51.1992C70.767 50.6731 70.0365 50.1431 69.2451 49.5596C66.1483 47.3941 63.1056 45.1674 60.0088 43.002C56.5433 40.5142 53.0817 38.0835 49.6162 35.5957C49.0054 35.1159 49 34.1367 49.4863 33.5869C50.0267 32.9761 50.8961 32.9783 51.5068 33.458C57.1586 37.4778 62.811 41.4978 68.4014 45.4639C69.8574 46.466 71.2597 47.5292 72.7158 48.5312C72.8521 48.6095 73.1561 48.7426 73.3535 48.8984C73.4055 48.7618 73.4717 48.5923 73.5176 48.4688C70.4587 42.3856 66.9539 36.5608 63.002 30.9951C59.3696 25.9242 55.459 21.0438 50.9473 16.7207C42.1192 8.40793 30.4798 2.34955 17.998 3.89551C12.1306 4.61587 5.05707 7.31516 2.77539 13.2822C2.47334 13.993 1.50306 14.2277 0.845703 13.9238C0.00805017 13.5162 -0.163123 12.6629 0.138672 11.9521C2.37376 6.1609 8.65606 2.87758 14.4287 1.58691Z" fill="#E9EAEC"/>
</svg>
