<svg width="18" height="19" viewBox="0 0 18 19" fill="none" xmlns="http://www.w3.org/2000/svg">
<path fill-rule="evenodd" clip-rule="evenodd" d="M1.99963 2.21875C1.86156 2.21875 1.74963 2.33068 1.74963 2.46875V6.46875C1.74963 6.60682 1.86156 6.71875 1.99963 6.71875H5.99963C6.1377 6.71875 6.24963 6.60682 6.24963 6.46875V2.46875C6.24963 2.33068 6.1377 2.21875 5.99963 2.21875H1.99963ZM0.249634 2.46875C0.249634 1.50225 1.03314 0.71875 1.99963 0.71875H5.99963C6.96613 0.71875 7.74963 1.50225 7.74963 2.46875V6.46875C7.74963 7.43525 6.96613 8.21875 5.99963 8.21875H1.99963C1.03314 8.21875 0.249634 7.43525 0.249634 6.46875V2.46875Z" fill="white"/>
<path fill-rule="evenodd" clip-rule="evenodd" d="M11.9996 2.21875C11.8616 2.21875 11.7496 2.33068 11.7496 2.46875V6.46875C11.7496 6.60682 11.8616 6.71875 11.9996 6.71875H15.9996C16.1377 6.71875 16.2496 6.60682 16.2496 6.46875V2.46875C16.2496 2.33068 16.1377 2.21875 15.9996 2.21875H11.9996ZM10.2496 2.46875C10.2496 1.50225 11.0331 0.71875 11.9996 0.71875H15.9996C16.9661 0.71875 17.7496 1.50225 17.7496 2.46875V6.46875C17.7496 7.43525 16.9661 8.21875 15.9996 8.21875H11.9996C11.0331 8.21875 10.2496 7.43525 10.2496 6.46875V2.46875Z" fill="white"/>
<path fill-rule="evenodd" clip-rule="evenodd" d="M1.99963 12.2188C1.86156 12.2188 1.74963 12.3307 1.74963 12.4688V16.4688C1.74963 16.6068 1.86156 16.7188 1.99963 16.7188H5.99963C6.1377 16.7188 6.24963 16.6068 6.24963 16.4688V12.4688C6.24963 12.3307 6.1377 12.2188 5.99963 12.2188H1.99963ZM0.249634 12.4688C0.249634 11.5023 1.03314 10.7188 1.99963 10.7188H5.99963C6.96613 10.7188 7.74963 11.5023 7.74963 12.4688V16.4688C7.74963 17.4352 6.96613 18.2188 5.99963 18.2188H1.99963C1.03314 18.2188 0.249634 17.4352 0.249634 16.4688V12.4688Z" fill="white"/>
<path fill-rule="evenodd" clip-rule="evenodd" d="M11.9996 12.2188C11.8616 12.2188 11.7496 12.3307 11.7496 12.4688V16.4688C11.7496 16.6068 11.8616 16.7188 11.9996 16.7188H15.9996C16.1377 16.7188 16.2496 16.6068 16.2496 16.4688V12.4688C16.2496 12.3307 16.1377 12.2188 15.9996 12.2188H11.9996ZM10.2496 12.4688C10.2496 11.5023 11.0331 10.7188 11.9996 10.7188H15.9996C16.9661 10.7188 17.7496 11.5023 17.7496 12.4688V16.4688C17.7496 17.4352 16.9661 18.2188 15.9996 18.2188H11.9996C11.0331 18.2188 10.2496 17.4352 10.2496 16.4688V12.4688Z" fill="white"/>
</svg>
