<svg width="15" height="15" viewBox="0 0 15 15" fill="none" xmlns="http://www.w3.org/2000/svg">
<path d="M7.32019 0.5C5.93572 0.5 4.58234 0.910543 3.4312 1.67971C2.28006 2.44888 1.38285 3.54213 0.853037 4.82122C0.323223 6.1003 0.1846 7.50776 0.454697 8.86563C0.724793 10.2235 1.39148 11.4708 2.37045 12.4497C3.34941 13.4287 4.59669 14.0954 5.95456 14.3655C7.31243 14.6356 8.71989 14.497 9.99898 13.9672C11.2781 13.4373 12.3713 12.5401 13.1405 11.389C13.9096 10.2378 14.3202 8.88447 14.3202 7.5C14.3166 5.64458 13.578 3.86617 12.266 2.55418C10.954 1.2422 9.17561 0.503558 7.32019 0.5V0.5ZM9.74327 5.34615C9.90301 5.34615 10.0592 5.39352 10.192 5.48227C10.3248 5.57102 10.4283 5.69717 10.4895 5.84475C10.5506 5.99234 10.5666 6.15474 10.5354 6.31142C10.5043 6.4681 10.4274 6.61201 10.3144 6.72497C10.2014 6.83793 10.0575 6.91485 9.90084 6.94602C9.74416 6.97718 9.58177 6.96119 9.43418 6.90006C9.28659 6.83892 9.16045 6.7354 9.0717 6.60257C8.98295 6.46975 8.93558 6.31359 8.93558 6.15385C8.93558 5.93963 9.02067 5.73419 9.17214 5.58272C9.32362 5.43125 9.52906 5.34615 9.74327 5.34615ZM4.89712 5.34615C5.05686 5.34615 5.21302 5.39352 5.34584 5.48227C5.47867 5.57102 5.58219 5.69717 5.64333 5.84475C5.70446 5.99234 5.72045 6.15474 5.68929 6.31142C5.65812 6.4681 5.5812 6.61201 5.46824 6.72497C5.35528 6.83793 5.21137 6.91485 5.05469 6.94602C4.89801 6.97718 4.73561 6.96119 4.58803 6.90006C4.44044 6.83892 4.31429 6.7354 4.22554 6.60257C4.13679 6.46975 4.08942 6.31359 4.08942 6.15385C4.08942 5.93963 4.17452 5.73419 4.32599 5.58272C4.47746 5.43125 4.6829 5.34615 4.89712 5.34615ZM10.5846 9.38461C10.2538 9.95769 9.77799 10.4336 9.20496 10.7645C8.63193 11.0953 7.98189 11.2695 7.32019 11.2695C6.6585 11.2695 6.00846 11.0953 5.43543 10.7645C4.8624 10.4336 4.38657 9.95769 4.05577 9.38461C4.01363 9.32348 3.98459 9.25428 3.97047 9.18139C3.95635 9.10849 3.95747 9.03345 3.97374 8.96101C3.99002 8.88856 4.0211 8.82026 4.06504 8.7604C4.10897 8.70054 4.16482 8.65041 4.22906 8.61317C4.2933 8.57593 4.36454 8.55238 4.43832 8.544C4.5121 8.53562 4.58682 8.54258 4.65778 8.56446C4.72873 8.58634 4.7944 8.62266 4.85064 8.67114C4.90689 8.71962 4.9525 8.7792 4.98462 8.84615C5.22175 9.25559 5.56236 9.59549 5.97228 9.83178C6.3822 10.0681 6.84704 10.1925 7.32019 10.1925C7.79334 10.1925 8.25818 10.0681 8.6681 9.83178C9.07803 9.59549 9.41863 9.25559 9.65577 8.84615C9.73269 8.73456 9.84886 8.65608 9.9811 8.62638C10.1133 8.59667 10.2519 8.61793 10.3692 8.6859C10.4864 8.75388 10.5737 8.86357 10.6137 8.99308C10.6536 9.1226 10.6432 9.26241 10.5846 9.38461Z" fill="white"/>
</svg>
