<svg width="20" height="21" viewBox="0 0 20 21" fill="none" xmlns="http://www.w3.org/2000/svg">
<path d="M5 15.2349V3.80636C5 3.0486 5.30102 2.32187 5.83684 1.78606C6.37266 1.25024 7.09938 0.949219 7.85714 0.949219H16.7857" stroke="white" stroke-width="1.42857" stroke-linecap="round" stroke-linejoin="round"/>
<path d="M14.2857 5.23438V16.6629C14.2857 17.4207 13.9847 18.1474 13.4489 18.6833C12.9131 19.2191 12.1864 19.5201 11.4286 19.5201" stroke="white" stroke-width="1.42857" stroke-linecap="round" stroke-linejoin="round"/>
<path d="M8.57138 16.6629V15.9487C8.57138 15.7592 8.49612 15.5775 8.36217 15.4436C8.22821 15.3096 8.04653 15.2344 7.85709 15.2344H1.42852C1.23908 15.2344 1.0574 15.3096 0.923443 15.4436C0.789488 15.5775 0.714233 15.7592 0.714233 15.9487V16.6629C0.714233 17.4207 1.01525 18.1474 1.55107 18.6833C2.08689 19.2191 2.81361 19.5201 3.57138 19.5201H11.4285C10.6708 19.5201 9.94403 19.2191 9.40821 18.6833C8.8724 18.1474 8.57138 17.4207 8.57138 16.6629Z" stroke="white" stroke-width="1.42857" stroke-linecap="round" stroke-linejoin="round"/>
<path d="M16.7858 0.949219C17.4488 0.949219 18.0847 1.21261 18.5535 1.68145C19.0224 2.15029 19.2858 2.78618 19.2858 3.44922V4.52065C19.2858 4.71009 19.2105 4.89177 19.0766 5.02572C18.9426 5.15968 18.7609 5.23493 18.5715 5.23493H14.2858V3.44922C14.2858 2.78618 14.5492 2.15029 15.018 1.68145C15.4868 1.21261 16.1227 0.949219 16.7858 0.949219V0.949219Z" stroke="white" stroke-width="1.42857" stroke-linecap="round" stroke-linejoin="round"/>
<path d="M8.57141 5.94922H10.7143" stroke="white" stroke-width="1.42857" stroke-linecap="round" stroke-linejoin="round"/>
<path d="M8.57141 10.2344H10.7143" stroke="white" stroke-width="1.42857" stroke-linecap="round" stroke-linejoin="round"/>
</svg>
