<svg width="23" height="25" viewBox="0 0 23 25" fill="none" xmlns="http://www.w3.org/2000/svg">
<path d="M5 20.0006V8.57199C5 7.81423 5.30102 7.0875 5.83684 6.55168C6.37266 6.01586 7.09938 5.71484 7.85714 5.71484H16.7857" stroke="#C8AEE1" stroke-width="1.42857" stroke-linecap="round" stroke-linejoin="round"/>
<path d="M14.2857 10V21.4286C14.2857 22.1863 13.9847 22.9131 13.4489 23.4489C12.9131 23.9847 12.1863 24.2857 11.4286 24.2857" stroke="#C8AEE1" stroke-width="1.42857" stroke-linecap="round" stroke-linejoin="round"/>
<path d="M8.57142 21.4286V20.7143C8.57142 20.5248 8.49617 20.3432 8.36221 20.2092C8.22826 20.0753 8.04658 20 7.85714 20H1.42856C1.23912 20 1.05744 20.0753 0.923489 20.2092C0.789534 20.3432 0.714279 20.5248 0.714279 20.7143V21.4286C0.714279 22.1863 1.0153 22.9131 1.55112 23.4489C2.08694 23.9847 2.81366 24.2857 3.57142 24.2857H11.4286C10.6708 24.2857 9.94408 23.9847 9.40826 23.4489C8.87244 22.9131 8.57142 22.1863 8.57142 21.4286Z" stroke="#C8AEE1" stroke-width="1.42857" stroke-linecap="round" stroke-linejoin="round"/>
<path d="M16.7858 5.71484C17.4488 5.71484 18.0847 5.97824 18.5535 6.44708C19.0224 6.91592 19.2858 7.5518 19.2858 8.21484V9.28627C19.2858 9.47571 19.2105 9.65739 19.0766 9.79135C18.9426 9.9253 18.7609 10.0006 18.5715 10.0006H14.2858V8.21484C14.2858 7.5518 14.5492 6.91592 15.018 6.44708C15.4868 5.97824 16.1227 5.71484 16.7858 5.71484V5.71484Z" stroke="#C8AEE1" stroke-width="1.42857" stroke-linecap="round" stroke-linejoin="round"/>
<path d="M8.57141 10.7148H10.7143" stroke="#C8AEE1" stroke-width="1.42857" stroke-linecap="round" stroke-linejoin="round"/>
<path d="M8.57143 15H10.7143" stroke="#C8AEE1" stroke-width="1.42857" stroke-linecap="round" stroke-linejoin="round"/>
<path d="M19.2686 0.5V3.05273H21.8213V6.26855H19.2686V8.82129H16.0527V6.26855H13.5V3.05273H16.0527V0.5H19.2686Z" fill="#C8AEE1" stroke="#0F0A1D"/>
</svg>
