<svg width="22" height="21" viewBox="0 0 22 21" fill="none" xmlns="http://www.w3.org/2000/svg">
<g clip-path="url(#clip0_210_6160)">
<path d="M8.07142 8.78655C9.891 8.78655 11.3661 7.31149 11.3661 5.49191C11.3661 3.67233 9.891 2.19727 8.07142 2.19727C6.25184 2.19727 4.77678 3.67233 4.77678 5.49191C4.77678 7.31149 6.25184 8.78655 8.07142 8.78655Z" stroke="#C8AEE1" stroke-width="1.46429" stroke-linecap="round" stroke-linejoin="round"/>
<path d="M14.6607 19.7684H1.48215V18.3041C1.48215 16.5565 2.17637 14.8805 3.4121 13.6448C4.64784 12.4091 6.32385 11.7148 8.07143 11.7148C9.81902 11.7148 11.495 12.4091 12.7308 13.6448C13.9665 14.8805 14.6607 16.5565 14.6607 18.3041V19.7684Z" stroke="#C8AEE1" stroke-width="1.46429" stroke-linecap="round" stroke-linejoin="round"/>
<path d="M18.9588 1.93555V4.48828H21.5116V7.22754H18.9588V9.78027H16.2196V7.22754H13.6669V4.48828H16.2196V1.93555H18.9588Z" fill="#C8AEE1" stroke="#0F0A1D" stroke-width="0.522959"/>
</g>
<defs>
<clipPath id="clip0_210_6160">
<rect width="20.5" height="20.5" fill="white" transform="translate(0.75)"/>
</clipPath>
</defs>
</svg>
