<svg width="20" height="23" viewBox="0 0 20 23" fill="none" xmlns="http://www.w3.org/2000/svg">
<path d="M0.724926 19.2675C1.19008 19.7316 1.82035 19.9923 2.47746 19.9923C3.13457 19.9923 3.76484 19.7316 4.23 19.2675L4.59824 18.8992C5.03616 19.2205 5.57458 19.3744 6.11614 19.3333C6.65769 19.2921 7.16664 19.0585 7.55095 18.6747L8.23804 17.9876L12.026 21.7688C12.1776 21.919 12.3574 22.0377 12.5552 22.1178C12.7529 22.198 12.9646 22.2381 13.1779 22.2359C13.6729 22.2231 14.146 22.029 14.5074 21.6904C14.8687 21.3518 15.0932 20.8923 15.1382 20.3992C15.1587 20.165 15.128 19.9292 15.0481 19.7082C14.9682 19.4871 14.8411 19.2862 14.6756 19.1193L10.9033 15.3425C12.3898 14.0222 13.8942 13.6899 15.8971 13.6068L16.1329 13.8426C16.4819 14.1914 16.9552 14.3874 17.4487 14.3874C17.9421 14.3874 18.4154 14.1914 18.7645 13.8426L18.7847 13.8224C18.9573 13.6497 19.0943 13.4448 19.1877 13.2192C19.2812 12.9936 19.3293 12.7519 19.3293 12.5077C19.3293 12.2635 19.2812 12.0218 19.1877 11.7962C19.0943 11.5706 18.9573 11.3657 18.7847 11.193L8.79939 1.20771C8.45043 0.859576 7.97763 0.664062 7.48471 0.664062C6.99178 0.664062 6.51898 0.859576 6.17002 1.20771L6.14757 1.23017C5.79943 1.57913 5.60392 2.05193 5.60392 2.54485C5.60392 3.03777 5.79943 3.51057 6.14757 3.85953L6.38334 4.0953C6.29577 6.26211 5.9118 7.84736 4.3041 9.45507L1.31996 12.4392C0.936176 12.8235 0.702572 13.3325 0.661389 13.874C0.620206 14.4156 0.774162 14.954 1.09542 15.3919L0.724926 15.7624C0.260787 16.2276 0.00012207 16.8578 0.00012207 17.5149C0.00012207 18.172 0.260787 18.8023 0.724926 19.2675ZM1.51755 18.4726C1.3906 18.3473 1.2898 18.198 1.221 18.0334C1.1522 17.8688 1.11677 17.6922 1.11677 17.5138C1.11677 17.3354 1.1522 17.1588 1.221 16.9942C1.2898 16.8296 1.3906 16.6803 1.51755 16.555L1.86559 16.207L3.78316 18.1246L3.43513 18.4726C3.30995 18.5997 3.16078 18.7007 2.99628 18.7697C2.83177 18.8387 2.6552 18.8743 2.47681 18.8745C2.29842 18.8747 2.12176 18.8395 1.9571 18.7709C1.79243 18.7023 1.64302 18.6017 1.51755 18.4748V18.4726ZM13.7617 20.8527C13.4721 21.1401 13.041 21.1985 12.8187 20.974L9.03291 17.1905L10.104 16.1262L13.8852 19.9119C14.1075 20.1342 14.0514 20.5653 13.7617 20.8527ZM6.9402 2.02729L6.96265 2.00483C7.10107 1.86717 7.28836 1.78989 7.48358 1.78989C7.67881 1.78989 7.86609 1.86717 8.00452 2.00483L17.9921 11.9856C18.0605 12.054 18.1148 12.1352 18.1518 12.2246C18.1889 12.314 18.2079 12.4098 18.2079 12.5066C18.2079 12.6033 18.1889 12.6991 18.1518 12.7885C18.1148 12.8779 18.0605 12.9591 17.9921 13.0275L17.9719 13.0477C17.8334 13.1854 17.6461 13.2627 17.4509 13.2627C17.2557 13.2627 17.0684 13.1854 16.93 13.0477L6.9402 3.06466C6.80389 2.92643 6.72748 2.7401 6.72748 2.54597C6.72748 2.35184 6.80389 2.16552 6.9402 2.02729ZM14.844 12.556C13.0724 12.7311 11.5792 13.2296 10.1085 14.5476L5.44476 9.88619C6.76955 8.4177 7.26129 6.92226 7.43643 5.15064L14.844 12.556ZM2.11483 13.2296L4.66111 10.6878L9.3046 15.3313L6.75832 17.8776C6.54148 18.0942 6.24751 18.2159 5.94099 18.2159C5.63448 18.2159 5.3405 18.0942 5.12367 17.8776L2.11483 14.8687C1.89819 14.6519 1.77649 14.3579 1.77649 14.0514C1.77649 13.7449 1.89819 13.4509 2.11483 13.2341V13.2296Z" fill="white"/>
<path d="M16.7144 2.47577L15.4929 3.7085C15.4063 3.81646 15.3626 3.95263 15.3702 4.09083C15.3779 4.22904 15.4363 4.35955 15.5344 4.45729C15.6324 4.55503 15.7631 4.61311 15.9013 4.62037C16.0395 4.62763 16.1756 4.58356 16.2833 4.49663L17.5138 3.27738C17.6201 3.17138 17.6799 3.02749 17.6801 2.87737C17.6803 2.72725 17.6209 2.58319 17.5149 2.47689C17.4089 2.3706 17.265 2.31076 17.1149 2.31055C16.9647 2.31034 16.8207 2.36977 16.7144 2.47577Z" fill="white"/>
<path d="M19.1731 6.41406L17.5137 6.4949C17.3649 6.49847 17.2235 6.56104 17.1208 6.66884C17.018 6.77664 16.9623 6.92084 16.9659 7.06972C16.9694 7.2186 17.032 7.35996 17.1398 7.46271C17.2476 7.56546 17.3918 7.62117 17.5407 7.6176H17.5676L19.2202 7.53901C19.3691 7.53186 19.5091 7.46587 19.6093 7.35554C19.7095 7.24521 19.7618 7.09959 19.7546 6.95071C19.7475 6.80183 19.6815 6.66189 19.5712 6.56167C19.4609 6.46145 19.3152 6.40916 19.1664 6.41631L19.1731 6.41406Z" fill="white"/>
<path d="M12.9376 3.00585C13.0808 3.0055 13.2184 2.95043 13.3224 2.85193C13.4263 2.75342 13.4886 2.61891 13.4967 2.47593L13.5753 0.823316C13.5788 0.749599 13.5678 0.675906 13.5428 0.606446C13.5179 0.536986 13.4795 0.473118 13.4299 0.41849C13.3803 0.363862 13.3204 0.319542 13.2536 0.288063C13.1869 0.256583 13.1146 0.23856 13.0409 0.235021C12.9671 0.231483 12.8934 0.242499 12.824 0.26744C12.7545 0.292382 12.6907 0.33076 12.636 0.380384C12.5814 0.430008 12.5371 0.489906 12.5056 0.556658C12.4741 0.62341 12.4561 0.695709 12.4526 0.769427L12.374 2.42204C12.3703 2.49578 12.3813 2.56951 12.4062 2.639C12.4311 2.7085 12.4695 2.7724 12.5191 2.82705C12.5688 2.88169 12.6287 2.92601 12.6955 2.95746C12.7623 2.98891 12.8346 3.00688 12.9084 3.01034L12.9376 3.00585Z" fill="white"/>
</svg>
