<svg width="23" height="26" viewBox="0 0 23 26" fill="none" xmlns="http://www.w3.org/2000/svg">
<g clip-path="url(#clip0_210_6241)">
<path d="M1.72487 24.0331C2.19002 24.4972 2.82029 24.7579 3.4774 24.7579C4.13451 24.7579 4.76478 24.4972 5.22994 24.0331L5.59818 23.6649C6.0361 23.9861 6.57452 24.1401 7.11608 24.0989C7.65763 24.0577 8.16658 23.8241 8.55088 23.4403L9.23798 22.7532L13.026 26.5345C13.1775 26.6847 13.3574 26.8033 13.5551 26.8835C13.7528 26.9636 13.9645 27.0038 14.1779 27.0015C14.6729 26.9887 15.146 26.7946 15.5073 26.456C15.8687 26.1174 16.0931 25.6579 16.1381 25.1648C16.1587 24.9306 16.1279 24.6948 16.048 24.4738C15.9682 24.2528 15.841 24.0518 15.6755 23.8849L11.9033 20.1081C13.3897 18.7878 14.8941 18.4555 16.897 18.3724L17.1328 18.6082C17.4819 18.957 17.9551 19.153 18.4486 19.153C18.9421 19.153 19.4154 18.957 19.7644 18.6082L19.7846 18.588C19.9573 18.4154 20.0942 18.2104 20.1877 17.9848C20.2811 17.7592 20.3292 17.5175 20.3292 17.2733C20.3292 17.0292 20.2811 16.7874 20.1877 16.5618C20.0942 16.3362 19.9573 16.1313 19.7846 15.9586L9.79933 5.97334C9.45037 5.6252 8.97757 5.42969 8.48464 5.42969C7.99172 5.42969 7.51892 5.6252 7.16996 5.97334L7.14751 5.99579C6.79937 6.34475 6.60386 6.81755 6.60386 7.31048C6.60386 7.8034 6.79937 8.2762 7.14751 8.62516L7.38328 8.86092C7.29571 11.0277 6.91174 12.613 5.30403 14.2207L2.3199 17.2048C1.93611 17.5891 1.70251 18.0981 1.66133 18.6396C1.62015 19.1812 1.7741 19.7196 2.09536 20.1575L1.72487 20.528C1.26073 20.9932 1.00006 21.6235 1.00006 22.2806C1.00006 22.9377 1.26073 23.5679 1.72487 24.0331ZM2.51749 23.2382C2.39054 23.1129 2.28974 22.9636 2.22094 22.799C2.15214 22.6344 2.11671 22.4578 2.11671 22.2794C2.11671 22.1011 2.15214 21.9244 2.22094 21.7598C2.28974 21.5953 2.39054 21.446 2.51749 21.3207L2.86553 20.9726L4.7831 22.8902L4.43506 23.2382C4.30989 23.3653 4.16072 23.4663 3.99622 23.5353C3.83171 23.6043 3.65514 23.6399 3.47675 23.6401C3.29836 23.6403 3.1217 23.6051 2.95703 23.5365C2.79237 23.4679 2.64296 23.3673 2.51749 23.2405V23.2382ZM14.7617 25.6183C14.472 25.9058 14.0409 25.9641 13.8186 25.7396L10.0328 21.9561L11.1039 20.8918L14.8852 24.6775C15.1075 24.8998 15.0513 25.3309 14.7617 25.6183ZM7.94014 6.79291L7.96259 6.77046C8.10101 6.63279 8.2883 6.55551 8.48352 6.55551C8.67875 6.55551 8.86603 6.63279 9.00446 6.77046L18.992 16.7513C19.0604 16.8197 19.1147 16.9009 19.1518 16.9903C19.1888 17.0796 19.2079 17.1754 19.2079 17.2722C19.2079 17.3689 19.1888 17.4648 19.1518 17.5541C19.1147 17.6435 19.0604 17.7247 18.992 17.7931L18.9718 17.8133C18.8334 17.951 18.6461 18.0283 18.4509 18.0283C18.2556 18.0283 18.0683 17.951 17.9299 17.8133L7.94014 7.83029C7.80383 7.69206 7.72742 7.50573 7.72742 7.3116C7.72742 7.11747 7.80383 6.93114 7.94014 6.79291ZM15.8439 17.3216C14.0723 17.4967 12.5791 17.9952 11.1084 19.3133L6.4447 14.6518C7.76948 13.1833 8.26123 11.6879 8.43637 9.91626L15.8439 17.3216ZM3.11477 17.9952L5.66105 15.4534L10.3045 20.0969L7.75826 22.6432C7.54142 22.8598 7.24745 22.9815 6.94093 22.9815C6.63442 22.9815 6.34044 22.8598 6.12361 22.6432L3.11477 19.6344C2.89812 19.4175 2.77643 19.1235 2.77643 18.817C2.77643 18.5105 2.89812 18.2165 3.11477 17.9997V17.9952Z" fill="#C8AEE1"/>
<path d="M17.7144 7.23944L16.4929 8.47217C16.4063 8.58013 16.3626 8.7163 16.3702 8.85451C16.3779 8.99272 16.4363 9.12322 16.5344 9.22096C16.6324 9.3187 16.7631 9.37678 16.9013 9.38404C17.0395 9.3913 17.1756 9.34724 17.2833 9.2603L18.5138 8.04105C18.6201 7.93505 18.6799 7.79116 18.6801 7.64104C18.6803 7.49092 18.6209 7.34687 18.5149 7.24057C18.4089 7.13427 18.265 7.07443 18.1149 7.07422C17.9647 7.07401 17.8207 7.13344 17.7144 7.23944Z" fill="#C8AEE1"/>
<path d="M13.9376 7.77147C14.0808 7.77112 14.2185 7.71606 14.3224 7.61755C14.4264 7.51904 14.4887 7.38453 14.4967 7.24156L14.5753 5.58894C14.5789 5.51522 14.5678 5.44153 14.5429 5.37207C14.518 5.30261 14.4796 5.23874 14.43 5.18411C14.3803 5.12949 14.3204 5.08517 14.2537 5.05369C14.1869 5.02221 14.1146 5.00418 14.0409 5.00065C13.9672 4.99711 13.8935 5.00812 13.824 5.03307C13.7546 5.05801 13.6907 5.09639 13.6361 5.14601C13.5815 5.19563 13.5371 5.25553 13.5057 5.32228C13.4742 5.38904 13.4562 5.46133 13.4526 5.53505L13.374 7.18767C13.3704 7.2614 13.3814 7.33513 13.4063 7.40463C13.4312 7.47413 13.4696 7.53803 13.5192 7.59267C13.5688 7.64732 13.6288 7.69164 13.6956 7.72309C13.7623 7.75454 13.8347 7.77251 13.9084 7.77596L13.9376 7.77147Z" fill="#C8AEE1"/>
<path d="M18.2686 1.5V4.05273H20.8213V7.26855H18.2686V9.82129H15.0527V7.26855H12.5V4.05273H15.0527V1.5H18.2686Z" fill="#C8AEE1" stroke="#0F0A1D"/>
</g>
<defs>
<clipPath id="clip0_210_6241">
<rect width="23" height="26" fill="white"/>
</clipPath>
</defs>
</svg>
