<svg width="26" height="29" viewBox="0 0 26 29" fill="none" xmlns="http://www.w3.org/2000/svg">
<path d="M1.95025 17.2613L1.11077 16.5481H1.11077L1.95025 17.2613ZM3.24168 14.2628L2.14712 14.1388L3.24168 14.2628ZM22.8208 14.2628L23.9154 14.1388V14.1388L22.8208 14.2628ZM24.1122 17.2613L24.9517 16.5481L24.1122 17.2613ZM22.3143 9.79124L21.2197 9.91523V9.91523L22.3143 9.79124ZM3.74822 9.79124L4.84278 9.91523L3.74822 9.79124ZM18.469 25.1678C18.6825 24.5981 18.3938 23.9633 17.8241 23.7497C17.2544 23.5362 16.6195 23.825 16.406 24.3947L17.4375 24.7812L18.469 25.1678ZM9.6565 24.3947C9.443 23.825 8.8081 23.5362 8.23842 23.7497C7.66874 23.9633 7.38 24.5981 7.5935 25.1678L8.625 24.7812L9.6565 24.3947ZM22.0932 21.8438V20.7422H3.96926V21.8438V22.9453H22.0932V21.8438ZM22.3143 9.79124L21.2197 9.91523L21.7263 14.3868L22.8208 14.2628L23.9154 14.1388L23.4088 9.66725L22.3143 9.79124ZM3.24168 14.2628L4.33624 14.3868L4.84278 9.91523L3.74822 9.79124L2.65365 9.66725L2.14712 14.1388L3.24168 14.2628ZM1.95025 17.2613L2.78974 17.9746C3.64847 16.9638 4.18607 15.7124 4.33624 14.3868L3.24168 14.2628L2.14712 14.1388C2.04555 15.0353 1.68252 15.8751 1.11077 16.5481L1.95025 17.2613ZM22.8208 14.2628L21.7263 14.3868C21.8764 15.7124 22.414 16.9638 23.2728 17.9746L24.1122 17.2613L24.9517 16.5481C24.38 15.8751 24.0169 15.0353 23.9154 14.1388L22.8208 14.2628ZM3.96926 21.8438V20.7422C2.66679 20.7422 1.83829 19.0944 2.78974 17.9746L1.95025 17.2613L1.11077 16.5481C-0.973407 19.0012 0.661849 22.9453 3.96926 22.9453V21.8438ZM22.0932 21.8438V22.9453C25.4007 22.9453 27.0359 19.0012 24.9517 16.5481L24.1122 17.2613L23.2728 17.9746C24.2242 19.0944 23.3957 20.7422 22.0932 20.7422V21.8438ZM22.3143 9.79124L23.4088 9.66725C22.7991 4.28445 18.3597 0.179688 13.0313 0.179688V1.28125V2.38281C17.1882 2.38281 20.7303 5.59494 21.2197 9.91523L22.3143 9.79124ZM3.74822 9.79124L4.84278 9.91523C5.33218 5.59494 8.87435 2.38281 13.0313 2.38281V1.28125V0.179688C7.7028 0.179688 3.26342 4.28445 2.65365 9.66725L3.74822 9.79124ZM17.4375 24.7812L16.406 24.3947C15.932 25.6594 14.6242 26.6172 13.0312 26.6172V27.7188V28.8203C15.5068 28.8203 17.6602 27.3258 18.469 25.1678L17.4375 24.7812ZM13.0312 27.7188V26.6172C11.4383 26.6172 10.1305 25.6594 9.6565 24.3947L8.625 24.7812L7.5935 25.1678C8.40227 27.3258 10.5557 28.8203 13.0312 28.8203V27.7188Z" fill="white"/>
</svg>
